# xmcd CD database file generated by Grip 2.96
# 
# Track frame offsets:
#       140
#       17415
#       37270
# 
# Disc length: 733 seconds
# 
# Revision: 0
# Processed by: cddbd v1.4PL0 Copyright (c) Steve Scherf et al.
# Submitted via: Grip 2.96
# 
DISCID=1b02dc03
DTITLE=Paula Cole - Where have all the Cowboys gone
DYEAR=1900
DGENRE=
TTITLE0=Where have all the Cowboys gone (Album Version)
TTITLE1=Hush, hush, hush
TTITLE2=Where have all the Cowboys gone (E-Team Drugstore Radio-Edit)
EXTD=
EXTT0=
EXTT1=
EXTT2=
PLAYORDER=
